<svg width="401" height="401" viewBox="0 0 401 401" fill="none" xmlns="http://www.w3.org/2000/svg">
<path d="M197.93 0.411578C200.003 0.421981 202.076 0.411593 204.149 0.399269C216.89 0.385616 229.509 1.59826 241.947 4.42167C242.7 4.58838 243.453 4.75508 244.228 4.92684C271.888 11.1956 298.95 23.1005 321.263 40.742C321.787 41.1494 322.311 41.5569 322.851 41.9767C324.494 43.269 326.113 44.5861 327.728 45.9133C328.375 46.4391 329.021 46.9649 329.688 47.5066C339.104 55.2902 348.116 63.9798 355.527 73.709C356.074 74.3864 356.623 75.0622 357.174 75.7366C367.378 88.3121 375.835 102.354 382.68 117.019C382.908 117.502 383.136 117.986 383.371 118.485C389.341 131.3 393.473 144.796 396.498 158.591C396.718 159.582 396.718 159.582 396.942 160.592C399.539 173.152 400.457 185.688 400.388 198.496C400.377 200.77 400.388 203.044 400.4 205.318C400.411 217.417 399.311 229.253 396.741 241.089C396.606 241.72 396.471 242.35 396.333 243C392.111 262.131 385.435 280.601 375.565 297.539C374.676 299.09 373.852 300.673 373.023 302.256C361.973 322.582 344.772 342.12 326.435 356.191C325.733 356.755 325.033 357.321 324.334 357.888C319.341 361.915 314.179 365.575 308.79 369.052C307.792 369.698 306.802 370.356 305.813 371.016C301.62 373.776 297.243 376.039 292.731 378.222C291.513 378.821 290.307 379.441 289.103 380.068C268.883 390.546 246.788 396.455 224.29 399.501C223.874 399.558 223.458 399.615 223.03 399.674C218.854 400.195 214.711 400.262 210.506 400.279C209.746 400.282 208.986 400.286 208.203 400.29C206.596 400.296 204.989 400.3 203.381 400.303C200.974 400.309 198.567 400.329 196.16 400.349C183.304 400.407 170.901 399.222 158.348 396.43C157.591 396.264 156.835 396.098 156.055 395.926C139.303 392.139 123.059 386.318 107.922 378.169C107.468 377.93 107.015 377.69 106.548 377.443C93.3258 370.438 80.3564 362.06 69.3948 351.815C68.0886 350.605 66.7607 349.438 65.4124 348.275C58.2756 342.049 51.6648 335.227 45.8586 327.749C45.2612 327.021 44.6617 326.295 44.0605 325.57C27.2322 305.173 14.812 280.805 7.7157 255.351C7.5608 254.796 7.40589 254.241 7.2463 253.669C3.29532 239.262 0.538827 224.384 0.472997 209.41C0.469312 208.739 0.465627 208.067 0.46183 207.375C0.455755 205.958 0.45151 204.54 0.449006 203.122C0.442801 201.009 0.422741 198.896 0.402287 196.782C0.341094 184.632 1.50406 172.683 3.95798 160.773C4.15822 159.792 4.15822 159.792 4.36251 158.791C13.331 116.679 36.4236 76.1626 69.7787 48.4989C70.1058 48.2276 70.4329 47.9563 70.7699 47.6767C96.9793 26.0512 127.034 11.2159 160.287 4.05806C160.837 3.93745 161.387 3.81683 161.954 3.69256C173.859 1.26921 185.8 0.339608 197.93 0.411578Z" fill="#72613F"/>
<path d="M191.2 0.601272C192.264 0.602644 192.264 0.602644 193.349 0.604044C195.595 0.607637 197.841 0.615746 200.087 0.623998C201.617 0.627243 203.148 0.630192 204.679 0.632836C208.414 0.639929 212.15 0.650722 215.885 0.664399C215.104 3.83732 214.095 6.92632 213.097 10.0374C212.874 10.7346 212.651 11.4319 212.421 12.1502C208.683 23.7642 204.777 35.3234 200.897 46.8905C200.694 47.4965 200.492 48.1024 200.283 48.7268C199.931 49.7763 199.579 50.8255 199.225 51.8743C198.31 54.6081 197.445 57.3532 196.607 60.1116C195.127 64.9482 193.521 69.7399 191.91 74.5339C188.627 84.2772 188.627 84.2772 185.5 94.071C183.728 99.7828 181.823 105.45 179.924 111.12C177.214 119.214 174.546 127.319 171.924 135.441C169.341 143.442 166.714 151.427 164.045 159.399C161.204 167.886 158.405 176.384 155.706 184.917C154.976 187.22 154.218 189.505 153.393 191.775C150.813 198.999 149.431 207.999 152.502 215.349C155.603 220.947 159.851 225.295 166.055 227.313C177.283 230.263 187.913 227.023 197.784 221.657C205.927 216.743 212.78 209.481 217.178 201.052C217.825 202.345 217.825 202.345 217.227 204.435C216.917 205.334 216.601 206.23 216.282 207.125C216.115 207.605 215.948 208.086 215.776 208.581C215.238 210.126 214.693 211.67 214.148 213.213C213.443 215.223 212.74 217.234 212.039 219.245C211.866 219.74 211.694 220.236 211.515 220.746C210.305 224.234 209.184 227.741 208.118 231.277C206.856 235.427 205.505 239.549 204.168 243.675C204.015 244.146 203.863 244.618 203.705 245.103C200.978 253.527 198.196 261.931 195.384 270.327C195.145 271.042 194.906 271.757 194.66 272.494C194.119 274.105 193.575 275.715 193.028 277.324C192.736 278.188 192.444 279.053 192.152 279.917C191.888 280.693 191.625 281.47 191.353 282.269C190.739 284.225 190.273 286.15 189.864 288.156C189.35 289.864 189.102 290.654 187.617 291.659C186.058 292.217 184.541 292.537 182.914 292.843C182.322 292.997 181.729 293.151 181.119 293.31C178.926 293.871 176.729 294.337 174.51 294.782C174.065 294.872 173.619 294.963 173.16 295.056C154.901 298.627 135.392 297.899 118.265 290.257C117.49 289.918 116.715 289.579 115.917 289.229C101.459 282.478 89.7009 270.322 84.0014 255.351C83.4719 253.844 82.9645 252.337 82.4989 250.808C82.0939 249.517 82.0939 249.517 81.4226 248.331C75.3615 235.503 78.1194 214.746 82.062 201.699C82.2833 200.825 82.4992 199.949 82.7085 199.073C83.6478 195.277 84.7309 191.534 86.1303 187.882C87.5379 184.164 88.724 180.373 89.9382 176.589C90.3983 175.156 90.8602 173.723 91.3226 172.291C91.9871 170.231 92.6511 168.172 93.3146 166.113C93.5692 165.323 93.5692 165.323 93.829 164.516C94.1723 163.451 94.5157 162.385 94.8591 161.319C96.0722 157.554 97.288 153.789 98.507 150.026C98.6812 149.488 98.8554 148.951 99.0348 148.397C101.91 139.531 104.888 130.704 107.949 121.901C109.775 116.642 111.483 111.359 113.093 106.03C113.747 103.927 114.41 101.827 115.073 99.7271C115.309 98.9784 115.309 98.9784 115.549 98.2146C116.636 94.7745 117.762 91.3496 118.912 87.9301C122.871 76.1495 122.871 76.1495 126.602 64.2956C127.082 62.8007 127.605 61.3185 128.165 59.8515C129.647 55.957 130.874 51.9727 132.146 48.0056C132.935 45.543 133.729 43.0819 134.524 40.6208C134.682 40.1313 134.839 39.6418 135.002 39.1375C135.94 36.2347 136.887 33.3353 137.847 30.4398C138.067 29.7764 138.287 29.113 138.513 28.4295C138.937 27.1685 139.37 25.9103 139.811 24.6552C140.814 21.7795 141.656 19.016 142.173 16.0116C143.309 10.1169 143.309 10.1169 145.418 7.77494C150.07 5.06886 155.698 4.63052 160.934 3.89646C162.452 3.64543 163.97 3.39038 165.487 3.13137C169.563 2.45365 173.643 1.83266 177.742 1.31081C178.157 1.25403 178.572 1.19725 178.999 1.13874C183.073 0.623164 187.097 0.581054 191.2 0.601272Z" fill="#FEFEFE"/>
<path d="M186.793 132.533C230.955 132.533 275.117 132.533 320.617 132.533C317.695 144.216 317.695 144.216 315.687 149.38C313.445 155.347 311.417 161.372 309.465 167.439C309.33 167.855 309.195 168.272 309.057 168.701C307.637 173.095 306.278 177.497 305.03 181.943C304.252 184.701 303.417 187.382 302.368 190.048C301.233 193.018 300.281 196.055 299.282 199.073C298.768 200.622 298.254 202.172 297.739 203.721C297.605 204.127 297.47 204.532 297.332 204.95C296.286 208.102 295.233 211.253 294.179 214.402C293.705 215.819 293.23 217.237 292.756 218.654C292.452 219.565 292.146 220.475 291.841 221.386C290.138 226.462 288.489 231.55 286.929 236.672C286.135 239.251 285.279 241.806 284.413 244.362C282.209 250.918 280.077 257.497 277.948 264.077C275.36 272.075 272.751 280.064 270.074 288.031C269.098 290.94 268.13 293.851 267.16 296.762C265.778 300.909 264.395 305.057 263.007 309.202C259.572 319.461 256.165 329.726 252.874 340.032C251.078 345.646 249.222 351.237 247.348 356.825C244.499 365.342 241.735 373.886 238.971 382.43C238.634 383.468 238.295 384.505 237.954 385.541C237.221 387.77 236.52 389.992 235.885 392.252C235.683 392.952 235.481 393.651 235.272 394.373C235.113 394.966 234.955 395.56 234.791 396.172C233.987 397.562 233.987 397.562 232.276 398.363C222.671 400.541 212.736 400.369 202.942 400.351C200.587 400.349 198.231 400.365 195.876 400.381C171.871 400.444 171.871 400.444 166.106 397.562C166.499 393.039 168.031 388.947 169.5 384.674C170.093 382.927 170.683 381.18 171.272 379.432C171.429 378.97 171.585 378.508 171.746 378.032C173.481 372.889 175.143 367.723 176.809 362.558C179.867 353.083 183.019 343.647 186.278 334.239C188.656 327.368 190.864 320.466 192.888 313.481C193.787 310.452 194.823 307.468 195.844 304.478C196.317 303.063 196.789 301.648 197.26 300.232C197.774 298.69 198.291 297.149 198.809 295.608C202.032 285.999 205.171 276.363 208.292 266.721C210.572 259.687 212.888 252.665 215.239 245.655C215.465 244.981 215.691 244.307 215.923 243.613C216.22 242.73 216.22 242.73 216.522 241.829C219.105 234.124 221.621 226.399 224.1 218.66C225.94 212.923 227.856 207.222 229.885 201.549C231.438 197.168 232.756 192.732 234.022 188.26C234.633 186.185 234.633 186.185 235.28 184.892C213.732 184.892 192.185 184.892 169.985 184.892C170.855 180.54 171.776 176.726 173.217 172.61C173.78 170.922 174.34 169.232 174.899 167.542C175.219 166.577 175.54 165.612 175.861 164.647C176.351 163.175 176.84 161.703 177.328 160.23C180.399 150.967 183.6 141.756 186.793 132.533Z" fill="#FEFEFE"/>
</svg>
